<svg fill="none" height="24" viewBox="0 0 24 24" width="24" xmlns="http://www.w3.org/2000/svg"><g clip-rule="evenodd" fill="#0f0f0f" fill-rule="evenodd"><path d="m12 16.5017c2.4853 0 4.5-2.0147 4.5-4.5s-2.0147-4.50002-4.5-4.50002c-2.48528 0-4.5 2.01472-4.5 4.50002s2.01472 4.5 4.5 4.5zm0-1.9983c-1.3816 0-2.50168-1.1201-2.50168-2.5017 0-1.3817 1.12008-2.5017 2.50168-2.5017s2.5017 1.12 2.5017 2.5017c0 1.3816-1.1201 2.5017-2.5017 2.5017z"/><path d="m11 1c0-.552285.4477-1 1-1s1 .447715 1 1v1.04938c4.7244.46906 8.4816 4.2262 8.9506 8.95062h1.0494c.5523 0 1 .4477 1 1s-.4477 1-1 1h-1.0494c-.469 4.7244-4.2262 8.4816-8.9506 8.9506v1.0494c0 .5523-.4477 1-1 1s-1-.4477-1-1v-1.0494c-4.72442-.469-8.48156-4.2262-8.95062-8.9506h-1.04938c-.552285 0-1-.4477-1-1-.00000012-.5523.447715-1 1-1h1.04938c.46906-4.72442 4.2262-8.48156 8.95062-8.95062zm1 19.0016c-4.41917 0-8.00161-3.5824-8.00161-8.0016 0-4.41917 3.58244-8.00161 8.00161-8.00161 4.4192 0 8.0016 3.58244 8.0016 8.00161 0 4.4192-3.5824 8.0016-8.0016 8.0016z"/></g></svg>