<svg width="20" height="20" viewBox="0 0 20 20" fill="none" xmlns="http://www.w3.org/2000/svg">
<path fill-rule="evenodd" clip-rule="evenodd" d="M10 13.751C12.0711 13.751 13.75 12.0721 13.75 10.001C13.75 7.92991 12.0711 6.25098 10 6.25098C7.92893 6.25098 6.25 7.92991 6.25 10.001C6.25 12.0721 7.92893 13.751 10 13.751ZM10 12.0857C8.84867 12.0857 7.91527 11.1523 7.91527 10.001C7.91527 8.84958 8.84867 7.91624 10 7.91624C11.1513 7.91624 12.0848 8.84958 12.0848 10.001C12.0848 11.1523 11.1513 12.0857 10 12.0857Z" fill="white"/>
<path fill-rule="evenodd" clip-rule="evenodd" d="M9.16667 0.833333C9.16667 0.373096 9.53975 0 10 0C10.4602 0 10.8333 0.373096 10.8333 0.833333V1.70782C14.7703 2.0987 17.9013 5.22965 18.2922 9.16667H19.1667C19.6269 9.16667 20 9.53975 20 10C20 10.4602 19.6269 10.8333 19.1667 10.8333H18.2922C17.9013 14.7703 14.7703 17.9013 10.8333 18.2922V19.1667C10.8333 19.6269 10.4602 20 10 20C9.53975 20 9.16667 19.6269 9.16667 19.1667V18.2922C5.22965 17.9013 2.0987 14.7703 1.70782 10.8333H0.833333C0.373096 10.8333 0 10.4602 0 10C-1e-07 9.53975 0.373096 9.16667 0.833333 9.16667H1.70782C2.0987 5.22965 5.22965 2.0987 9.16667 1.70782V0.833333ZM10 16.668C6.31736 16.668 3.33199 13.6827 3.33199 10C3.33199 6.31736 6.31736 3.33199 10 3.33199C13.6827 3.33199 16.668 6.31736 16.668 10C16.668 13.6827 13.6827 16.668 10 16.668Z" fill="white"/>
</svg>
