<svg width="20" height="17" viewBox="0 0 20 17" fill="none" xmlns="http://www.w3.org/2000/svg">
<path d="M1.0544 8.6498C1.27839 6.69413 2.18156 4.93476 3.5325 3.59413L5.0607 5.06277L5.7678 4.38319L4.2674 2.94127C5.7043 1.79965 7.5166 1.07852 9.5 0.974203V3.36381H10.5V0.974203C12.4834 1.07851 14.2958 1.79966 15.7327 2.94132L14.2929 4.32485L15 5.00448L16.4676 3.59418C17.8185 4.93481 18.7216 6.69413 18.9456 8.6498H16.8421V9.61089H19C18.9988 11.6966 18.2289 13.6091 16.947 15.1021L15.2367 13.4585L14.5296 14.138L16.2682 15.8089L16.2619 15.8149L16.9576 16.5053C18.8331 14.7598 20 12.3133 20 9.6057C20 4.30039 15.5226 0 10 0C4.4774 0 0 4.30039 0 9.6057C0 12.2414 1.10581 14.63 2.89485 16.3651L3.60515 15.6886C3.602 15.6855 3.5989 15.6825 3.59575 15.6794L5.0984 14.2353L4.39125 13.5557L2.9321 14.9581C1.72283 13.4871 1.00123 11.6302 1 9.61089H3.02635V8.6498H1.0544Z" fill="white"/>
<path fill-rule="evenodd" clip-rule="evenodd" d="M9.49744 8.59423L8.31264 15.2355C8.29849 15.424 8.35639 15.6109 8.47549 15.7613L9.43669 16.8239C9.99944 17.0596 10.2494 17.0596 10.7207 16.8239L11.6819 15.7613C11.801 15.6109 11.8589 15.424 11.8448 15.2355L10.6542 8.60298C10.5821 7.64338 9.56959 7.63468 9.49744 8.59423ZM10.8304 15.2378L10.0763 11.0367L9.32684 15.2376L10.032 16.0171C10.0706 16.0296 10.094 16.0353 10.1064 16.0378L10.8304 15.2378ZM10.092 16.0416C10.0921 16.0415 10.0937 16.0411 10.0965 16.0407C10.0933 16.0415 10.0919 16.0417 10.092 16.0416ZM9.64914 8.62196L9.64864 8.62047C9.64864 8.62042 9.64884 8.6209 9.64914 8.62196Z" fill="white"/>
</svg>
