<svg width="306" height="204" viewBox="0 0 306 204" fill="none" xmlns="http://www.w3.org/2000/svg">
<path fill-rule="evenodd" clip-rule="evenodd" d="M116 1V7C92.1667 9.33333 42.2 29 33 89C33.1474 88.0639 48.5 80 58 78.5H79C93.1667 80.3333 122.4 92.9 126 128.5V145C125 159.667 112.9 191.8 72.5 203H55.5C40.3333 201.667 8.2 186.4 1 136V108.5C4.5 75.6667 29.5 8.2 101.5 1H116ZM27.5 136V112C28.2298 109.194 29.5515 103.765 29 104.5C33 98.5 45.3333 94.6667 51 93.5H68.5C90.1 95.5 98.1667 128.667 99.5 145V155.5C97.9 182.3 81.5 190.667 73.5 191.5H63.5C36.7 189.5 28.3333 153.667 27.5 136Z" fill="#115E6D"/>
<path d="M116 1V7C92.1667 9.33333 42.2 29 33 89C33.1474 88.0639 48.5 80 58 78.5H79C93.1667 80.3333 122.4 92.9 126 128.5V145C125 159.667 112.9 191.8 72.5 203M116 1C114.833 1 110.3 1 101.5 1M116 1H101.5M72.5 203C71.3 203 60.6667 203 55.5 203M72.5 203H55.5M55.5 203C40.3333 201.667 8.2 186.4 1 136M1 136C1 134.4 1 117 1 108.5M1 136V108.5M1 108.5C4.5 75.6667 29.5 8.2 101.5 1M63.5 191.5C36.7 189.5 28.3333 153.667 27.5 136V112C28.2298 109.194 29.5515 103.765 29 104.5C33 98.5 45.3333 94.6667 51 93.5H68.5C90.1 95.5 98.1667 128.667 99.5 145V155.5C97.9 182.3 81.5 190.667 73.5 191.5M63.5 191.5C70.7 191.5 73.1667 191.5 73.5 191.5M63.5 191.5H73.5" stroke="#05585C"/>
<path fill-rule="evenodd" clip-rule="evenodd" d="M305 54V80H242.5C257.667 88.8333 288 112.5 288 136.5V145C287 161.833 273.6 197 228 203H207.5C189.833 201 152.2 184.7 143 135.5V116.5C146 99 163.3 62.4 208.5 56C215.3 56 227.667 55 233 54.5L305 54ZM217.5 80L227 80.5C253.4 106.5 257 123.333 255.5 128.5V152C254.3 176.4 236.667 187.167 228 189.5H217.5C186.3 183.5 175.5 149.667 174 133.5V120C175.2 94.4 197.167 83.3333 208 81L217.5 80Z" fill="#00B0AB"/>
<path d="M174 120C175.2 94.4 197.167 83.3333 208 81L217.5 80L227 80.5C253.4 106.5 257 123.333 255.5 128.5V152C254.3 176.4 236.667 187.167 228 189.5M174 120C174 122.8 174 130.167 174 133.5M174 120V133.5M174 133.5C175.5 149.667 186.3 183.5 217.5 189.5M217.5 189.5C223.9 189.5 227.167 189.5 228 189.5M217.5 189.5H228M305 54V80H242.5C257.667 88.8333 288 112.5 288 136.5V145C287 161.833 273.6 197 228 203H207.5C189.833 201 152.2 184.7 143 135.5V116.5C146 99 163.3 62.4 208.5 56C215.3 56 227.667 55 233 54.5L305 54Z" stroke="#00B0AB"/>
</svg>
