<svg enable-background="new 0 0 128 128" height="128" viewBox="0 0 128 128" width="128" xmlns="http://www.w3.org/2000/svg"><g fill="#282d33"><path d="m59.805 0h4v7.729h-4z"/><path d="m39.162 6.389h7.732v4h-7.732z" transform="matrix(.3442 .9389 -.9389 .3442 36.0951 -34.897)"/><path d="m23.068 17.019h7.747v4h-7.747z" transform="matrix(.6453 .7639 -.7639 .6453 24.085 -13.8349)"/><path d="m11.6 32.472h7.767v4h-7.767z" transform="matrix(.8674 .4976 -.4976 .8674 19.2068 -3.1338)"/><path d="m6.151 50.882h7.783v3.999h-7.783z" transform="matrix(.985 .1727 -.1727 .985 9.2845 -.9398)"/><path d="m99.872 96.977h7.75v4h-7.75z" transform="matrix(.6451 .7641 -.7641 .6451 112.4423 -44.1465)"/><path d="m111.318 81.525h7.768v3.999h-7.768z" transform="matrix(.8674 .4976 -.4976 .8674 56.8328 -46.248)"/><path d="m116.751 63.114h7.784v4h-7.784z" transform="matrix(.9849 .1731 -.1731 .9849 13.096 -19.9048)"/><path d="m117.415 42.073h4v7.786h-4z" transform="matrix(.1719 .9851 -.9851 .1719 144.1726 -79.5722)"/><path d="m109.663 24.507h4v7.768h-4z" transform="matrix(.4971 .8677 -.8677 .4971 80.7914 -82.6123)"/><path d="m96.326 10.632h4v7.748h-4z" transform="matrix(.7636 .6457 -.6457 .7636 32.6107 -60.0591)"/><path d="m79.011 2.121h3.999v7.736h-3.999z" transform="matrix(.9387 .3448 -.3448 .9387 7.0329 -27.5652)"/><path d="m96.91 128h-4v-38.083l.59-.587c7.813-7.772 12.113-18.098 12.113-29.073 0-22.7-18.605-41.167-41.475-41.167-22.873 0-41.481 18.467-41.481 41.167 0 .617.024 1.23.048 1.843l.023.581-.291.532-12.305 21.168h8.624v19.041c0 5.318 4.361 9.645 9.721 9.645h20.566v14.933h-4v-10.934h-16.566c-7.565 0-13.721-6.121-13.721-13.645v-15.04h-11.578l15.51-26.676c-.018-.489-.031-.967-.031-1.448 0-24.905 20.403-45.167 45.481-45.167 25.075 0 45.475 20.262 45.475 45.167 0 11.769-4.504 22.854-12.703 31.312z"/><path d="m63.621 95.607c-19.374 0-35.136-15.656-35.136-34.899h4c0 17.038 13.967 30.899 31.136 30.899 17.166 0 31.131-13.861 31.131-30.899 0-17.037-13.965-30.897-31.131-30.897v-4c19.371 0 35.131 15.655 35.131 34.897 0 19.243-15.76 34.899-35.131 34.899z"/><path d="m32.485 60.708h-4c0-.7.022-1.395.063-2.085l3.993.233c-.036.613-.056 1.23-.056 1.852z"/><path d="m32.94 55.419-3.941-.685c.226-1.302.53-2.604.904-3.869l3.836 1.133c-.33 1.119-.599 2.27-.799 3.421zm1.987-6.725-3.681-1.566c.516-1.212 1.109-2.409 1.762-3.559l3.478 1.978c-.579 1.016-1.103 2.075-1.559 3.147zm3.467-6.098-3.23-2.359c.778-1.065 1.625-2.097 2.518-3.066l2.942 2.709c-.791.858-1.541 1.772-2.23 2.716zm4.751-5.166-2.62-3.022c.995-.862 2.05-1.678 3.137-2.424l2.265 3.297c-.965.661-1.9 1.385-2.782 2.149zm5.784-3.972-1.879-3.531c1.165-.62 2.375-1.179 3.599-1.662l1.469 3.721c-1.084.428-2.157.924-3.189 1.472zm6.526-2.575-1.039-3.862c1.272-.342 2.579-.616 3.882-.813l.598 3.955c-1.156.174-2.314.417-3.441.72z"/><path d="m61.769 29.864-.233-3.993c.69-.041 1.386-.061 2.085-.061v4c-.621 0-1.239.018-1.852.054z"/><path d="m63.621 84.861c-13.406 0-24.312-10.834-24.312-24.151 0-13.318 10.906-24.154 24.312-24.154 13.404 0 24.309 10.835 24.309 24.154h-4c0-11.113-9.109-20.154-20.309-20.154s-20.312 9.041-20.312 20.154c0 11.111 9.112 20.151 20.312 20.151z"/><path d="m87.836 62.855-3.984-.354c.053-.59.078-1.193.078-1.791h4c0 .716-.032 1.437-.094 2.145z"/><path d="m70.143 83.982-1.064-3.855c1.311-.361 2.59-.858 3.803-1.478l1.816 3.564c-1.454.741-2.987 1.337-4.555 1.769zm8.664-4.412-2.49-3.131c1.064-.847 2.049-1.806 2.924-2.851l3.064 2.57c-1.047 1.251-2.225 2.399-3.498 3.412zm6.246-7.456-3.52-1.902c.648-1.198 1.174-2.465 1.563-3.765l3.832 1.145c-.467 1.562-1.098 3.083-1.875 4.522z"/><path d="m63.621 84.861v-4c.6 0 1.204-.025 1.797-.077l.342 3.986c-.705.061-1.426.091-2.139.091z"/><path d="m63.619 74.09c-7.424 0-13.465-6.003-13.465-13.382s6.041-13.382 13.465-13.382c7.426 0 13.465 6.003 13.465 13.382s-6.039 13.382-13.465 13.382zm0-22.764c-5.219 0-9.465 4.208-9.465 9.382 0 5.173 4.246 9.382 9.465 9.382s9.465-4.209 9.465-9.382-4.246-9.382-9.465-9.382z"/></g></svg>