<svg width="25" height="28" viewBox="0 0 25 28" fill="none" xmlns="http://www.w3.org/2000/svg">
<path d="M17 26C16.2089 26 15.4355 25.7654 14.7777 25.3259C14.1199 24.8864 13.6072 24.2616 13.3045 23.5307C13.0017 22.7998 12.9225 21.9956 13.0769 21.2196C13.2312 20.4437 13.6122 19.731 14.1716 19.1716C14.731 18.6122 15.4437 18.2312 16.2196 18.0769C16.9956 17.9225 17.7998 18.0017 18.5307 18.3045C19.2616 18.6072 19.8864 19.1199 20.3259 19.7777C20.7654 20.4355 21 21.2089 21 22C20.999 23.0606 20.5772 24.0774 19.8273 24.8273C19.0774 25.5772 18.0606 25.999 17 26ZM17 20C16.6044 20 16.2178 20.1173 15.8889 20.3371C15.56 20.5568 15.3036 20.8692 15.1522 21.2346C15.0009 21.6001 14.9613 22.0022 15.0384 22.3902C15.1156 22.7781 15.3061 23.1345 15.5858 23.4142C15.8655 23.6939 16.2219 23.8844 16.6098 23.9616C16.9978 24.0387 17.3999 23.9991 17.7654 23.8478C18.1308 23.6964 18.4432 23.44 18.6629 23.1111C18.8827 22.7822 19 22.3956 19 22C18.9993 21.4698 18.7883 20.9615 18.4134 20.5866C18.0385 20.2117 17.5302 20.0007 17 20Z" fill="white"/>
<path d="M24.7769 21.4785C24.159 19.9045 23.0927 18.5464 21.7103 17.5726C20.3279 16.5987 18.6902 16.052 17 16C15.3098 16.052 13.6721 16.5987 12.2897 17.5726C10.9073 18.5464 9.84105 19.9045 9.2231 21.4785L9 22L9.2231 22.5215C9.84105 24.0955 10.9073 25.4536 12.2897 26.4274C13.6721 27.4013 15.3098 27.948 17 28C18.6902 27.948 20.3279 27.4013 21.7103 26.4274C23.0927 25.4536 24.159 24.0955 24.7769 22.5215L25 22L24.7769 21.4785ZM17 26C16.2089 26 15.4355 25.7654 14.7777 25.3259C14.1199 24.8864 13.6072 24.2616 13.3045 23.5307C13.0017 22.7998 12.9225 21.9956 13.0769 21.2196C13.2312 20.4437 13.6122 19.731 14.1716 19.1716C14.731 18.6122 15.4437 18.2312 16.2196 18.0769C16.9956 17.9225 17.7998 18.0017 18.5307 18.3045C19.2616 18.6072 19.8864 19.1199 20.3259 19.7777C20.7654 20.4355 21 21.2089 21 22C20.9988 23.0605 20.577 24.0772 19.8271 24.8271C19.0772 25.577 18.0605 25.9988 17 26Z" fill="white"/>
<path d="M7 26H2V5H5V8H17V5H20V14H22V5C22 4.46957 21.7893 3.96086 21.4142 3.58579C21.0391 3.21071 20.5304 3 20 3H17V2C17 1.46957 16.7893 0.960859 16.4142 0.585786C16.0391 0.210714 15.5304 0 15 0H7C6.46957 0 5.96086 0.210714 5.58579 0.585786C5.21071 0.960859 5 1.46957 5 2V3H2C1.46957 3 0.960859 3.21071 0.585786 3.58579C0.210714 3.96086 0 4.46957 0 5V26C0 26.5304 0.210714 27.0391 0.585786 27.4142C0.960859 27.7893 1.46957 28 2 28H7V26ZM7 2H15V6H7V2Z" fill="white"/>
</svg>
