<svg fill="none" height="24" viewBox="0 0 24 24" width="24" xmlns="http://www.w3.org/2000/svg"><path clip-rule="evenodd" d="m6.75 4c0-.69036.55964-1.25 1.25-1.25h12c.6904 0 1.25.55964 1.25 1.25v6c0 .6904-.5596 1.25-1.25 1.25h-1c-.4142 0-.75.3358-.75.75s.3358.75.75.75h1c1.5188 0 2.75-1.2312 2.75-2.75v-6c0-1.51878-1.2312-2.75-2.75-2.75h-12c-1.51878 0-2.75 1.23122-2.75 2.75v1.5c0 .41421.33579.75.75.75s.75-.33579.75-.75zm.25 6c0 1.1046-.89543 2-2 2s-2-.8954-2-2c0-1.10457.89543-2 2-2s2 .89543 2 2zm10.6309-.59434c.224-.34843.1231-.81246-.2253-1.03645s-.8125-.12311-1.0365.22531l-3.8907 6.05218c-.399-.1319-.8523-.0906-1.2356.1533l-3.2428 1.7v-.5c0-1.6569-1.34315-3-3-3s-3 1.3431-3 3v6h6v-2.32c.2634-.0393.52344-.1322.76426-.2827l4.02704-2.1419c.4825-.3015.7274-.8409.6756-1.3724zm-8.3809-3.40566c0-.41421.33579-.75.75-.75h8c.4142 0 .75.33579.75.75s-.3358.75-.75.75h-8c-.41421 0-.75-.33579-.75-.75zm.75 2.25c-.41421 0-.75.33579-.75.75s.33579.75.75.75h4c.4142 0 .75-.33579.75-.75s-.3358-.75-.75-.75z" fill="#28303f" fill-rule="evenodd"/></svg>