<svg width="424" height="402" viewBox="0 0 424 402" fill="none" xmlns="http://www.w3.org/2000/svg">
<path fill-rule="evenodd" clip-rule="evenodd" d="M267.334 128C332.135 128 384.667 180.532 384.667 245.333C384.667 270.027 377.039 292.938 364.011 311.84L423.895 371.725L393.726 401.895L333.841 342.011C314.938 355.039 292.027 362.667 267.334 362.667C202.532 362.667 150 310.135 150 245.333C150 180.532 202.532 128 267.334 128ZM267.334 170.667C226.096 170.667 192.667 204.096 192.667 245.333C192.667 286.571 226.096 320 267.334 320C308.571 320 342 286.571 342 245.333C342 204.096 308.571 170.667 267.334 170.667ZM129.071 234.666C128.803 238.186 128.667 241.744 128.667 245.333C128.667 256.348 129.951 267.062 132.378 277.335L0.666992 277.333V234.667L129.071 234.666ZM86.0003 0V213.333H22.0003V0H86.0003ZM171.334 85.3333L171.331 145.273C152.401 163.441 138.615 186.928 132.378 213.332L107.334 213.333V85.3333H171.334ZM256.667 42.6667L256.667 107.071C233.221 108.854 211.406 116.468 192.666 128.466L192.667 42.6667H256.667ZM342 64L342.001 128.466C323.262 116.468 301.446 108.855 278.001 107.071L278 64H342Z" fill="white"/>
</svg>
